<svg width="18" height="18" viewBox="0 0 18 18" fill="none" xmlns="http://www.w3.org/2000/svg">
<circle cx="9.00006" cy="8.99992" r="7" fill="#7C5AE0"/>
<path d="M9 5.05178C9.70961 5.05178 10.2882 5.2386 10.7249 5.6342C11.1616 6.01882 11.3799 6.54629 11.3799 7.21662C11.3799 7.76607 11.238 8.21662 10.976 8.56827C10.8777 8.67816 10.5611 8.97486 10.0371 9.4364C9.84061 9.60123 9.69869 9.78805 9.60044 9.98585C9.49127 10.2056 9.43668 10.4364 9.43668 10.7001V10.854H8.18122V10.7001C8.18122 10.2826 8.24672 9.91991 8.39956 9.62321C8.54148 9.32651 8.96725 8.86497 9.67686 8.22761L9.80786 8.07376C10.0044 7.832 10.1026 7.56827 10.1026 7.29354C10.1026 6.9309 9.99345 6.64519 9.79694 6.4364C9.58952 6.22761 9.29476 6.12871 8.92358 6.12871C8.44323 6.12871 8.1048 6.27156 7.89738 6.57926C7.71179 6.832 7.62445 7.19464 7.62445 7.65618H6.37991C6.37991 6.84299 6.60917 6.20563 7.08952 5.74409C7.55895 5.28255 8.19214 5.05178 9 5.05178ZM8.80349 11.3924C9.04367 11.3924 9.25109 11.4694 9.41485 11.6232C9.56769 11.7771 9.65502 11.9749 9.65502 12.2166C9.65502 12.4584 9.56769 12.6672 9.40393 12.821C9.24017 12.9749 9.04367 13.0518 8.80349 13.0518C8.56332 13.0518 8.36681 12.9639 8.20306 12.81C8.0393 12.6562 7.96288 12.4584 7.96288 12.2166C7.96288 11.9749 8.0393 11.7771 8.20306 11.6232C8.36681 11.4694 8.56332 11.3924 8.80349 11.3924Z" fill="white"/>
</svg>
