<svg width="307" height="5" viewBox="0 0 307 5" fill="none" xmlns="http://www.w3.org/2000/svg">
<path d="M0 4.95717C9.52319 3.49142 17.0132 2.42962 22.5614 1.82943C28.4084 1.19692 38.003 0.721434 48.9933 0.288763C58.1669 -0.072388 68.2042 -0.00888309 78.7659 0.0323179C83.9244 0.0524413 88.646 0.155921 96.4923 0.426811C104.339 0.697701 115.159 1.15458 128.416 1.7908C141.672 2.42701 157.036 3.22872 170.237 3.79392C183.438 4.35912 194.01 4.66351 204.65 4.8303C215.29 4.99708 225.678 5.01702 232.957 4.99005C244.114 4.94872 252.354 4.57787 267.2 3.65184C277.856 2.98717 294.451 1.8169 307 1.09895" stroke="#E1F44B" stroke-width="9" stroke-linecap="round"/>
</svg>
