<svg width="38" height="38" viewBox="0 0 38 38" fill="none" xmlns="http://www.w3.org/2000/svg">
<g filter="url(#filter0_f_75_532)">
<path d="M19 38C29.4934 38 38 29.4934 38 19C38 8.50659 29.4934 0 19 0C8.50659 0 0 8.50659 0 19C0 29.4934 8.50659 38 19 38Z" fill="white"/>
</g>
<path d="M19.0618 34.3452C27.3801 34.3452 34.1235 27.5522 34.1235 19.1726C34.1235 10.793 27.3801 4 19.0618 4C10.7434 4 4 10.793 4 19.1726C4 27.5522 10.7434 34.3452 19.0618 34.3452Z" fill="white"/>
<path opacity="0.09" d="M19.0618 34.3452C27.3801 34.3452 34.1235 27.5522 34.1235 19.1726C34.1235 10.793 27.3801 4 19.0618 4C10.7434 4 4 10.793 4 19.1726C4 27.5522 10.7434 34.3452 19.0618 34.3452Z" fill="#367CFF"/>
<path d="M14.9139 10.5667C14.9139 10.5667 15.0772 15.1364 18.1049 15.3465L18.6178 9.3205L14.9139 10.5667Z" fill="#0A0A0A"/>
<path d="M15.4971 16.2799C16.4877 16.2799 17.2908 15.4709 17.2908 14.473C17.2908 13.475 16.4877 12.6661 15.4971 12.6661C14.5064 12.6661 13.7034 13.475 13.7034 14.473C13.7034 15.4709 14.5064 16.2799 15.4971 16.2799Z" fill="#0A0A0A"/>
<path d="M22.5154 17.4673C22.4993 17.4651 22.3222 20.4283 18.905 20.17C16.5393 19.9918 15.696 17.4635 15.6418 17.4635C15.9122 17.4182 16.1788 17.3531 16.4397 17.2686C16.8122 17.067 17.2731 16.8572 17.3931 16.1285C17.4623 15.7085 17.345 13.5597 17.3811 13.1348L21.0123 13.9513C20.961 14.8487 20.6064 16.9293 21.8511 17.2976C22.058 17.3585 22.2811 17.4145 22.5154 17.4673Z" fill="#E98862"/>
<path opacity="0.5" d="M21.063 16.447C21.0061 16.2622 20.9695 16.0716 20.9538 15.8787C20.9139 15.439 20.9219 14.9963 20.9775 14.5583C20.2395 14.458 19.5442 14.1511 18.9706 13.6726C18.9031 13.9234 18.5323 15.0196 18.635 15.2578C18.8292 15.7094 19.7411 16.447 21.063 16.447Z" fill="#0C0C0C"/>
<path d="M20.4942 15.6487C19.056 15.6672 17.2581 14.9361 17.0352 12.99L16.8342 11.2335C16.6112 9.28731 17.4453 7.59122 19.2643 7.38031C21.0833 7.16901 22.6235 8.58857 22.8465 10.5348L22.9355 11.3122C23.021 12.0594 23.0602 15.6159 20.4942 15.6487Z" fill="#E98862"/>
<path d="M22.4142 11.2601C22.5388 11.2601 22.6398 11.1583 22.6398 11.0329C22.6398 10.9074 22.5388 10.8057 22.4142 10.8057C22.2897 10.8057 22.1887 10.9074 22.1887 11.0329C22.1887 11.1583 22.2897 11.2601 22.4142 11.2601Z" fill="#0C0C0C"/>
<path d="M20.1091 11.5256C20.2336 11.5256 20.3346 11.4239 20.3346 11.2984C20.3346 11.1729 20.2336 11.0712 20.1091 11.0712C19.9845 11.0712 19.8835 11.1729 19.8835 11.2984C19.8835 11.4239 19.9845 11.5256 20.1091 11.5256Z" fill="#0C0C0C"/>
<path opacity="0.5" d="M21.253 13.0281H21.2565C21.3302 13.0189 21.4034 13.0057 21.4757 12.9886C21.5836 12.9621 21.7259 12.9156 21.7148 12.8182C21.702 12.7074 21.2636 11.5459 21.2136 11.4139C21.2114 11.4082 21.2082 11.403 21.204 11.3985C21.1998 11.3941 21.1948 11.3905 21.1893 11.388C21.1838 11.3855 21.1778 11.3841 21.1717 11.384C21.1657 11.3838 21.1596 11.3848 21.154 11.387C21.1483 11.3892 21.1431 11.3925 21.1387 11.3967C21.1343 11.4009 21.1308 11.4059 21.1283 11.4115C21.1258 11.4171 21.1245 11.4231 21.1243 11.4292C21.1241 11.4353 21.1251 11.4414 21.1273 11.4471C21.3144 11.9416 21.6145 12.7543 21.623 12.8291C21.5076 12.8945 21.3783 12.9311 21.2459 12.9357C21.2337 12.9367 21.2224 12.9425 21.2144 12.9518C21.2064 12.9612 21.2025 12.9734 21.2034 12.9857C21.2043 12.998 21.2101 13.0094 21.2194 13.0174C21.2287 13.0254 21.2407 13.0294 21.253 13.0285V13.0281Z" fill="#0C0C0C"/>
<path opacity="0.5" d="M20.9278 13.838C21.2232 13.821 21.5106 13.7343 21.7667 13.585C21.7768 13.5787 21.7841 13.5687 21.7871 13.5572C21.7901 13.5456 21.7885 13.5333 21.7828 13.5228C21.777 13.5124 21.7675 13.5045 21.7562 13.5009C21.7449 13.4973 21.7326 13.4982 21.7219 13.5035C21.1688 13.8118 20.6398 13.8296 20.1923 13.5552C20.1833 13.5493 20.174 13.544 20.1644 13.5391C20.1533 13.5348 20.141 13.5349 20.13 13.5395C20.119 13.5441 20.1101 13.5527 20.1053 13.5637C20.1005 13.5746 20.1 13.587 20.104 13.5983C20.108 13.6096 20.1162 13.6189 20.1268 13.6243C20.1303 13.6261 20.1362 13.6297 20.1443 13.6347C20.3795 13.7796 20.6523 13.8503 20.9278 13.838Z" fill="#0C0C0C"/>
<path d="M15.3553 11.7328L16.9852 11.5528C18.239 11.145 18.76 9.0472 18.76 9.0472C18.76 9.0472 19.8835 10.3343 23.213 9.74659C23.213 9.74659 23.084 5.42267 18.0203 6.03138C16.2573 6.24359 14.9278 8.02466 14.9141 10.3535C14.9046 11.9854 15.3553 11.7328 15.3553 11.7328Z" fill="#0A0A0A"/>
<path d="M17.2162 13.5698C16.6633 13.6343 16.147 13.0903 16.0833 12.5334C16.0196 11.9765 16.4324 11.6174 16.9853 11.5532L17.3128 11.8932L17.6915 13.5145L17.2162 13.5698Z" fill="#E98862"/>
<path d="M21.6165 10.466C21.7796 10.3751 21.9639 10.3299 22.1501 10.3353C22.2421 10.3373 22.3333 10.3533 22.4205 10.3827C22.5072 10.4114 22.59 10.451 22.6668 10.5006C22.6745 10.5055 22.68 10.5132 22.6822 10.5222C22.6844 10.5311 22.6831 10.5405 22.6785 10.5485C22.674 10.5564 22.6666 10.5623 22.6578 10.5649C22.6491 10.5675 22.6397 10.5666 22.6316 10.5623L22.6293 10.561C22.5565 10.5175 22.4785 10.4833 22.3972 10.4594C22.3167 10.4352 22.233 10.4234 22.149 10.4244C21.9818 10.4252 21.8178 10.4706 21.6737 10.556L21.6702 10.5582C21.6643 10.5621 21.6576 10.5648 21.6506 10.5661C21.6436 10.5674 21.6364 10.5673 21.6294 10.5657C21.6225 10.5641 21.6159 10.5611 21.6101 10.5569C21.6043 10.5528 21.5994 10.5474 21.5957 10.5413C21.592 10.5352 21.5896 10.5283 21.5886 10.5212C21.5875 10.5141 21.5879 10.5069 21.5897 10.5C21.5916 10.493 21.5947 10.4865 21.5991 10.4808C21.6034 10.4751 21.6089 10.4704 21.6151 10.4669L21.6165 10.466Z" fill="#0C0C0C"/>
<path d="M20.1557 10.7367C19.9963 10.6858 19.8263 10.6784 19.6632 10.7154C19.581 10.7335 19.5021 10.7639 19.429 10.8058C19.3551 10.8474 19.2867 10.8983 19.2254 10.957L19.2234 10.9589C19.2165 10.9641 19.2078 10.9665 19.1992 10.9657C19.1905 10.9649 19.1825 10.961 19.1766 10.9546C19.1706 10.9482 19.1672 10.9399 19.167 10.9311C19.1668 10.9224 19.1698 10.9139 19.1754 10.9072C19.2393 10.8416 19.3111 10.7844 19.3892 10.7368C19.4678 10.6886 19.5531 10.6525 19.6423 10.6298C19.8227 10.5827 20.0123 10.5852 20.1914 10.6371C20.1984 10.6389 20.2049 10.6421 20.2105 10.6465C20.2162 10.6508 20.221 10.6563 20.2245 10.6626C20.228 10.6688 20.2302 10.6757 20.231 10.6829C20.2318 10.69 20.2312 10.6973 20.2292 10.7042C20.2271 10.7111 20.2237 10.7175 20.2192 10.723C20.2146 10.7286 20.209 10.7331 20.2026 10.7364C20.1963 10.7398 20.1894 10.7417 20.1822 10.7423C20.1751 10.7428 20.1679 10.7419 20.1612 10.7396H20.1598L20.1557 10.7367Z" fill="#0C0C0C"/>
<path opacity="0.52" d="M20.9587 14.2781C21.0122 14.2758 21.0654 14.269 21.1177 14.2578C21.1293 14.2549 21.1394 14.2475 21.1458 14.2373C21.1521 14.2271 21.1543 14.2147 21.1518 14.2029C21.1494 14.1911 21.1424 14.1807 21.1325 14.1739C21.1226 14.1671 21.1104 14.1645 21.0986 14.1666C21.0169 14.1907 20.931 14.1969 20.8467 14.1848C20.7624 14.1728 20.6817 14.1427 20.6099 14.0967C20.6004 14.0889 20.5882 14.0852 20.576 14.0865C20.5638 14.0877 20.5526 14.0938 20.5448 14.1033C20.5371 14.1129 20.5334 14.1251 20.5347 14.1374C20.5359 14.1497 20.5419 14.161 20.5514 14.1688C20.6705 14.2516 20.8145 14.2902 20.9587 14.2781Z" fill="#0C0C0C"/>
<path opacity="0.1" d="M19.7966 13.0641C20.0338 13.0557 20.2211 12.9069 20.215 12.7317C20.2089 12.5565 20.0117 12.4212 19.7746 12.4296C19.5375 12.4379 19.3502 12.5868 19.3562 12.762C19.3623 12.9372 19.5595 13.0725 19.7966 13.0641Z" fill="#0C0C0C"/>
<path opacity="0.1" d="M22.3346 12.5804C22.3413 12.7554 22.5383 12.8904 22.7755 12.8825C22.8165 12.881 22.8572 12.8753 22.8971 12.8653C22.9251 12.6597 22.9423 12.4611 22.9517 12.2766C22.8878 12.2547 22.8205 12.245 22.7531 12.248C22.5164 12.256 22.3292 12.4044 22.3346 12.5804Z" fill="#0C0C0C"/>
<path d="M27.6188 20.5883C27.6086 21.6228 27.256 22.8563 27.1303 24.3468C27.097 24.7446 26.2494 25.8953 26.1263 27.1753C25.9712 28.8053 26.3162 31.3471 26.3623 32.4462C23.9799 33.7742 21.2849 34.4274 18.5635 34.3365C15.8421 34.2455 13.196 33.4137 10.9062 31.9296C10.8447 29.1062 10.7716 25.6203 10.678 24.7846C10.3741 22.0258 10.4562 20.2809 10.8947 19.4646C11.6114 18.1317 12.8871 17.7249 14.2218 17.5415C15.0372 17.4304 16.2617 17.3516 16.2617 17.3516C16.2617 17.3516 16.3655 19.4659 18.8401 19.5834C22.2082 19.7436 21.9839 17.3516 22.0005 17.3516C23.2224 17.3516 25.5379 17.6461 26.4252 18.2557C27.3663 18.9002 27.6304 19.6648 27.6188 20.5883Z" fill="#FFC239"/>
<path d="M15.9822 22.1976L11.4126 32.2429C9.65816 31.1995 8.13165 29.8089 6.92517 28.1551L10.737 19.7754L15.9822 22.1976Z" fill="#FFC239"/>
<path d="M31.3101 28.0032C30.4149 29.2613 29.3345 30.3745 28.106 31.3044C27.7017 31.6119 27.2819 31.8982 26.8483 32.1621L22.1582 21.7752L27.4098 19.3678L31.3101 28.0032Z" fill="#FFC239"/>
<defs>
<filter id="filter0_f_75_532" x="-1.9" y="-1.9" width="41.8" height="41.8" filterUnits="userSpaceOnUse" color-interpolation-filters="sRGB">
<feFlood flood-opacity="0" result="BackgroundImageFix"/>
<feBlend mode="normal" in="SourceGraphic" in2="BackgroundImageFix" result="shape"/>
<feGaussianBlur stdDeviation="0.95" result="effect1_foregroundBlur_75_532"/>
</filter>
</defs>
</svg>
