<svg width="68" height="18" viewBox="0 0 68 18" fill="none" xmlns="http://www.w3.org/2000/svg">
<path d="M64.3706 2.85425C64.5418 2.85425 64.677 2.89255 64.7762 2.97142C64.8776 3.05254 64.9316 3.17422 64.9316 3.33421C64.9316 3.43111 64.9046 3.51448 64.8505 3.59109C64.7919 3.66771 64.7153 3.71728 64.6162 3.74207V3.74657C64.7807 3.78263 64.8731 3.88628 64.8933 4.06204L64.9204 4.32794C64.9294 4.43385 64.9609 4.51947 65.0128 4.58257H64.7964C64.7581 4.52398 64.7333 4.44962 64.7266 4.35273L64.7063 4.12288C64.695 4.02148 64.659 3.94712 64.5959 3.90206C64.5373 3.85699 64.4562 3.83896 64.348 3.83896H63.8252V4.58257H63.627V2.85425H64.3728H64.3706ZM63.823 3.66771H64.3458C64.472 3.66771 64.5711 3.63616 64.6387 3.57983C64.6995 3.52349 64.7311 3.44688 64.7311 3.34548C64.7311 3.24408 64.6995 3.15845 64.641 3.10888C64.5779 3.0548 64.4787 3.03001 64.3458 3.03001H63.823V3.66996V3.66771Z" fill="#222222" fill-opacity="0.8" stroke="#222222" stroke-opacity="0.8" stroke-width="0.0844226"/>
<path d="M64.2781 2.45117C63.5796 2.45117 63.0117 3.01902 63.0117 3.71755C63.0117 4.41609 63.5796 4.98394 64.2781 4.98394C64.9766 4.98394 65.5445 4.41609 65.5445 3.71755C65.5445 3.01902 64.9766 2.45117 64.2781 2.45117ZM64.2781 4.7879C63.6877 4.7879 63.2078 4.31019 63.2078 3.71981C63.2078 3.12943 63.6855 2.64947 64.2781 2.64947C64.8707 2.64947 65.3462 3.12718 65.3462 3.71981C65.3462 4.31244 64.8685 4.7879 64.2781 4.7879Z" fill="#222222" fill-opacity="0.8" stroke="#222222" stroke-opacity="0.8" stroke-width="0.0844226"/>
<path d="M10.017 16.6777C6.18819 16.7428 2.84992 13.5735 2.91098 9.51262C2.97205 5.53315 6.04163 2.47986 10.0028 2.45136C13.9944 2.42286 17.1251 5.62475 17.1495 9.57572C17.1739 13.4697 13.9212 16.7815 10.017 16.6777ZM10.1738 11.4688C10.2165 11.365 10.3712 11.3894 10.3793 11.5013C10.3997 11.7802 10.4465 12.053 10.5076 12.2911C10.7254 13.1501 11.4215 14.2798 12.4291 14.8803C12.7406 15.0655 13.1986 14.9699 13.3858 14.8762C14.1573 14.4956 15.3338 13.3496 15.6493 12.4234C15.7287 12.1893 15.6554 11.8474 15.4336 11.6927C14.4036 10.9741 13.6484 10.1192 12.936 9.08109C12.6103 8.60681 12.1971 8.29944 11.5905 8.40529C11.4582 8.42768 11.2689 8.51724 11.0857 8.70044C11.0124 8.77372 10.8903 8.71265 10.9025 8.61088C10.9513 8.22413 10.9717 7.78242 10.9452 7.45266C10.8903 6.78501 10.7742 6.26391 10.4567 5.66139C9.96206 4.72301 8.54737 4.29759 7.8105 5.24614C7.15303 6.09089 6.51591 7.37531 4.06106 9.45155C4.05699 9.45359 4.05495 9.45766 4.05088 9.46173C3.76794 9.75892 3.73334 10.0378 3.77405 10.4184C3.85343 11.1533 4.24018 12.3827 4.69207 13.0015C5.59381 14.2371 6.12712 14.5994 6.70521 14.8885C7.01868 15.0452 7.51128 15.0065 7.72908 14.8457C8.49241 14.2839 8.87712 13.7506 9.41043 12.9628C9.60381 12.6779 9.93153 12.0631 10.1758 11.4728L10.1738 11.4688Z" fill="#222222" fill-opacity="0.8"/>
<path d="M42.7994 5.73011C40.6112 5.64054 38.7996 7.38499 38.7812 9.54876V14.8147C38.7812 15.0508 38.9726 15.2421 39.2087 15.2421H40.0168C40.2529 15.2421 40.4443 15.0508 40.4443 14.8147V12.7547C41.0672 13.1883 41.8244 13.4407 42.6386 13.4407C44.8166 13.4407 46.5794 11.627 46.4939 9.4307C46.4165 7.43181 44.8003 5.81153 42.8014 5.73011H42.7994ZM44.8268 9.72789C44.7576 10.821 43.8741 11.7044 42.7811 11.7736C41.458 11.8591 40.3629 10.764 40.4483 9.44088C40.5176 8.3478 41.401 7.46438 42.4941 7.39517C43.8172 7.30968 44.9123 8.4048 44.8268 9.72789Z" fill="#222222" fill-opacity="0.8"/>
<path d="M59.8402 8.90109H61.9897C62.2258 8.90109 62.4171 8.70975 62.4171 8.47363V7.8243C62.4171 7.58818 62.2258 7.39684 61.9897 7.39684H59.8402V6.1572C59.8402 5.92108 59.6488 5.72974 59.4127 5.72974H58.6087C58.3725 5.72974 58.1812 5.92108 58.1812 6.1572V9.6461C58.1812 9.67867 58.1812 9.71327 58.1812 9.74991C58.1731 10.3076 58.2484 11.5534 59.144 12.4612C59.4819 12.8032 59.8849 13.0414 60.3775 13.1981C60.8335 13.3447 61.3648 13.42 61.9876 13.4403C61.9876 13.4403 61.9897 13.4403 61.9917 13.4403C62.008 13.4403 62.0222 13.4403 62.0385 13.4403C62.2502 13.4342 62.4192 13.2612 62.4192 13.0495V12.2068C62.4192 11.9788 62.24 11.7915 62.0161 11.7814H62.0121C61.3892 11.7529 60.746 11.6307 60.3389 11.2196C59.9297 10.8043 59.8422 10.2608 59.8422 9.7723C59.8422 9.72752 59.8422 9.68477 59.8422 9.6461V8.90109H59.8402Z" fill="#222222" fill-opacity="0.8"/>
<path d="M27.101 5.73462C27.0847 5.73462 27.0705 5.73462 27.0542 5.73462C27.0542 5.73462 27.0522 5.73462 27.0501 5.73462C26.4293 5.75497 25.898 5.83029 25.44 5.97685C24.9495 6.13358 24.5444 6.37174 24.2065 6.71371C23.3109 7.62156 23.2356 8.8673 23.2437 9.42504C23.2437 9.46371 23.2437 9.49832 23.2437 9.52885V13.0177C23.2437 13.2539 23.435 13.4452 23.6712 13.4452H24.4752C24.7113 13.4452 24.9027 13.2539 24.9027 13.0177V9.52885C24.9027 9.49017 24.9027 9.44743 24.9027 9.40265C24.9027 8.91412 24.9902 8.37063 25.3993 7.95538C25.8064 7.54217 26.4497 7.42207 27.0725 7.39358H27.0766C27.3025 7.38136 27.4796 7.19613 27.4796 6.96815V6.12544C27.4796 5.91171 27.3107 5.73869 27.099 5.73462H27.101Z" fill="#222222" fill-opacity="0.8"/>
<path d="M32.6569 5.73517C30.6356 5.80031 28.995 7.44095 28.9299 9.46223C28.8566 11.6891 30.6845 13.517 32.9134 13.4458C34.9347 13.3806 36.5753 11.74 36.6405 9.71871C36.7137 7.4898 34.8858 5.66393 32.6569 5.73517ZM32.6406 11.7807C31.5476 11.7115 30.6641 10.8281 30.5949 9.73499C30.5094 8.41189 31.6046 7.31678 32.9276 7.40227C34.0207 7.47148 34.9041 8.3549 34.9734 9.44798C35.0588 10.7711 33.9637 11.8662 32.6406 11.7807Z" fill="#222222" fill-opacity="0.8"/>
<path d="M56.0715 9.18232C56.0694 9.15179 56.0654 9.12329 56.0613 9.09276C55.9982 8.57981 55.8414 8.11163 55.587 7.65364C55.3733 7.26485 54.8522 6.58906 54.2619 6.24505C53.7286 5.93362 53.1484 5.76263 52.5256 5.7321C52.493 5.7321 52.4604 5.73006 52.4258 5.72803C52.3933 5.72803 52.3586 5.72803 52.3261 5.72803C52.2935 5.72803 52.2569 5.72803 52.2223 5.72803C52.1897 5.72803 52.1571 5.73006 52.1246 5.7321C51.5017 5.76263 50.9216 5.93362 50.3883 6.24505C49.8733 6.54631 49.4539 6.9412 49.1262 7.4277C49.1099 7.45212 49.0937 7.47655 49.0774 7.49894C49.0733 7.50708 49.0672 7.51522 49.0631 7.52133C49.0509 7.54169 49.0367 7.56204 49.0244 7.5824C48.7822 7.97932 48.6112 8.42511 48.5257 8.89938C48.5196 8.92992 48.5156 8.96249 48.5115 8.99302C48.5074 9.01948 48.5034 9.04594 48.4993 9.07444C48.4972 9.08869 48.4952 9.1009 48.4932 9.11515C48.4911 9.13754 48.4871 9.1579 48.485 9.18029C48.485 9.18843 48.485 9.19657 48.483 9.20471C48.481 9.22507 48.4789 9.24542 48.4769 9.26578C48.4769 9.27799 48.4749 9.28817 48.4749 9.30038C48.4749 9.3187 48.4728 9.33702 48.4708 9.35738C48.4708 9.37163 48.4708 9.38384 48.4688 9.39809C48.4688 9.4103 48.4688 9.42455 48.4688 9.43676C48.4688 9.45712 48.4688 9.47544 48.4688 9.4958C48.4688 9.52429 48.4688 9.55483 48.4688 9.58332C48.4688 9.61589 48.4688 9.64846 48.4688 9.68103V9.6851C48.4688 9.71767 48.4708 9.75024 48.4728 9.78484C48.5034 10.4077 48.6743 10.9878 48.9858 11.5211C49.3318 12.1115 49.798 12.5796 50.3883 12.9236C50.9216 13.2351 51.5017 13.4061 52.1246 13.4366H52.1266C52.1592 13.4366 52.1897 13.4386 52.2223 13.4407C52.2569 13.4407 52.2915 13.4407 52.3261 13.4407C52.4258 13.4407 52.5235 13.4366 52.6212 13.4305C52.6314 13.4305 52.6416 13.4305 52.6518 13.4284C52.666 13.4284 52.6803 13.4244 52.6945 13.4244C53.7326 13.3735 54.6201 12.8259 55.1229 12.3455C55.127 12.3415 55.1331 12.3354 55.1371 12.3313C55.1412 12.3293 55.1433 12.3252 55.1453 12.3231C55.2064 12.258 55.245 12.1705 55.245 12.0728C55.245 11.9486 55.1819 11.8387 55.0863 11.7736C55.0863 11.7736 55.0822 11.7715 55.0802 11.7695L55.0639 11.7593C55.0639 11.7593 55.0598 11.7573 55.0557 11.7552L54.213 11.2464L54.1906 11.2321C54.1906 11.2321 54.1886 11.2321 54.1866 11.2301C54.1255 11.1975 54.0563 11.1792 53.983 11.1792C53.8792 11.1792 53.7856 11.2158 53.7123 11.2769C53.4008 11.5334 53.0182 11.7043 52.5988 11.7573C52.5805 11.7593 52.5642 11.7613 52.5459 11.7634C52.5174 11.7654 52.4869 11.7695 52.4564 11.7715C52.4482 11.7715 52.4421 11.7715 52.434 11.7715C52.3973 11.7715 52.3627 11.7736 52.3261 11.7736H52.32C52.3017 11.7736 52.2813 11.7736 52.263 11.7736C52.263 11.7736 52.2609 11.7736 52.2589 11.7736C52.2426 11.7736 52.2284 11.7736 52.2141 11.7736C52.1958 11.7736 52.1795 11.7736 52.1612 11.7715C52.147 11.7715 52.1347 11.7695 52.1225 11.7674C52.1103 11.7674 52.1001 11.7654 52.0879 11.7634C52.0757 11.7634 52.0635 11.7634 52.0513 11.7593C52.0472 11.7593 52.0431 11.7593 52.0411 11.7593C52.0269 11.7593 52.0126 11.7552 51.9984 11.7532C51.9861 11.7532 51.976 11.7491 51.9638 11.7471C51.9515 11.7451 51.9373 11.743 51.9251 11.739C51.919 11.739 51.9129 11.7369 51.9088 11.7349C51.8884 11.7308 51.8701 11.7267 51.8498 11.7227C51.8416 11.7227 51.8355 11.7186 51.8274 11.7166C51.0661 11.5374 50.4595 10.9634 50.2336 10.2204H55.6969C55.8964 10.2204 56.0613 10.0698 56.0857 9.87644V9.8398C56.0938 9.75634 56.0979 9.66882 56.0979 9.58332C56.0979 9.47748 56.0938 9.37163 56.0857 9.26578C56.0857 9.23728 56.0816 9.21082 56.0776 9.18232H56.0715ZM50.2274 8.95027C50.2336 8.93195 50.2376 8.91567 50.2437 8.89735C50.4127 8.38032 50.7709 7.94676 51.235 7.6801C51.2493 7.67196 51.2656 7.66178 51.2819 7.65364C51.2941 7.64753 51.3063 7.63939 51.3185 7.63328C51.3429 7.62107 51.3694 7.60682 51.3958 7.59461C51.4223 7.5824 51.4488 7.57018 51.4732 7.56001C51.4895 7.55186 51.5058 7.54576 51.522 7.53965C51.6747 7.47858 51.8294 7.43584 51.9923 7.41345C52.0472 7.4053 52.1022 7.3992 52.1571 7.39513C52.1755 7.39513 52.1958 7.39309 52.2141 7.39106C52.2284 7.39106 52.2447 7.39106 52.2589 7.39106C52.2589 7.39106 52.2609 7.39106 52.263 7.39106C52.2813 7.39106 52.3017 7.39106 52.32 7.39106H52.3261C52.4014 7.39106 52.4767 7.39513 52.55 7.40327C52.8635 7.43177 53.1566 7.52744 53.4273 7.68417C53.7632 7.87958 54.0278 8.1442 54.2232 8.48007C54.3005 8.61441 54.3636 8.75486 54.4105 8.89938H54.4064C54.4125 8.9177 54.4166 8.93399 54.4227 8.95231H50.2274V8.95027Z" fill="#222222" fill-opacity="0.8"/>
</svg>
